/* XPM */
static char *uglyicon_xpm[] = {
"32 32 4 1",
"0	c #B60000",
"1	c #009200",
"2	c #DBDB00",
"3	c #000092",
"22222222222222222222222222222222",
"20022222002222222222222222222222",
"20022222002222222222222222222222",
"20022222002222222222222222222222",
"20022222002220000000222200002222",
"20022222002222222200220002200222",
"20022222002222222000220022220022",
"20022222002222220002200222220022",
"20022222002222220022200000000022",
"20022222002222200222200222222222",
"22002222002222000222220022222222",
"22002220022220002222220002222022",
"22200000222220000000222200000222",
"22222222222222222222222221222222",
"22211111222222221222222221222222",
"22212221222222221222222221222222",
"22212221222111111112211121111122",
"22211111222222121222212221122122",
"22212222222111121222122221222122",
"22212222221122121222212221222122",
"22212222222111122112211121222122",
"22222222222222222222222222222222",
"22222222222222222222223232222222",
"22333322322222222222223222222222",
"23322222322222222222223222222222",
"23322223333232223223333232233322",
"22233322322232223223223232232232",
"22222322322232223232223232322232",
"22222322322233223223223232232232",
"22333322233223333223333232233322",
"22222222222222222222222222222222",
"22222222222222222222222222222222"
};
