/* XPM */
static const char *stop_all_xpm[] = {
"32 32 2 1",
"0	c #920000",
"1	c #000000",
"00000000000000000000000000000000",
"00000000000001111100000000000000",
"00000000000001111110000000000000",
"00000000000001111110000000000000",
"00000000000011111110000000000000",
"00000000000011111111000000000000",
"00000000000111111111000000000000",
"00000000000111101111100000000000",
"00000000000111100111100000000000",
"00000000001111100111100000000000",
"00000000001111000111110000000000",
"00000000001111000011110000000000",
"00000000011110000011111000000000",
"00000000011110000001111000000000",
"00000000111110000001111000000000",
"00000000111100000001111100000000",
"00000000111100000000111100000000",
"00000001111000000000111100000000",
"00000001111000000000011110000000",
"00000011111111111111111110000000",
"00000011111111111111111111000000",
"00000011111111111111111111000000",
"00000111110000000000001111000000",
"00000111100000000000000111100000",
"00001111100000000000000111100000",
"00001111000000000000000111110000",
"00001111000000000000000011110000",
"00011111000000000000000011110000",
"00011110000000000000000011111000",
"00011110000000000000000001111000",
"00000000000000000000000000000000",
"00000000000000000000000000000000"
};
