/* XPM */
static const char *sync_xpm[] = {
"32 32 2 1",
" 	c None",
"1	c #000092",
"                                ",
"     111   111111111            ",
"     111 1111111111111          ",
"     1111111111111111111        ",
"     11111111111111111111       ",
"     111111111111111111111      ",
"     11111111     111111111     ",
"     111111         11111111    ",
"     11111111        1111111    ",
"     11111111         1111111   ",
"                       111111   ",
"                        111111  ",
"                        111111  ",
"                        111111  ",
"                         11111  ",
"  1111                   11111  ",
"  11111                   1111  ",
"  11111                         ",
"  111111                        ",
"  111111                        ",
"  111111                        ",
"   111111                       ",
"   1111111         11111111     ",
"    1111111        11111111     ",
"    11111111       11111111     ",
"     111111111       111111     ",
"      111111111111111111111     ",
"       11111111111111111111     ",
"        1111111111111111111     ",
"          1111111111111 111     ",
"            111111111   111     ",
"                                "
};
